Coordinates
version=1
nRows=9
nColumns=24
inDegrees=yes

Units are S.I. units (second, meters, Newtons, ...)
Angles are in degrees.

endheader
time	pelvis_tilt	pelvis_list	pelvis_rotation	pelvis_tx	pelvis_ty	pelvis_tz	hip_flexion_r	hip_adduction_r	hip_rotation_r	knee_angle_r	ankle_angle_r	subtalar_angle_r	mtp_angle_r	hip_flexion_l	hip_adduction_l	hip_rotation_l	knee_angle_l	ankle_angle_l	subtalar_angle_l	mtp_angle_l	lumbar_extension	lumbar_bending	lumbar_rotation
      1.06700000	     -6.47159678	     -4.21974254	     -4.54145174	     -0.15349526	      0.97149744	      0.33517889	     -8.98729682	      7.47579956	     -1.82524772	     -7.26236221	     11.43994002	     -0.07222927	      2.20664972	     28.98796614	     -3.86713939	     -7.42455047	      1.28569226	     -1.02611750	      1.08050755	      0.22810967	      1.57396127	      8.46720264	      8.28538921
      1.07116667	     -6.53954937	     -4.15956425	     -4.57202170	     -0.14767633	      0.97088318	      0.33489916	     -9.05164791	      7.35072468	     -1.83171958	     -7.66911805	     11.40943841	     -0.04516183	      2.24557273	     28.97613535	     -3.75596634	     -7.49086003	      1.33161759	     -1.16907057	      0.95561361	      0.23638416	      1.66498567	      8.41709182	      8.33100872
      1.07533333	     -6.63291416	     -4.09995700	     -4.60117176	     -0.14183854	      0.97028830	      0.33461673	     -9.05922515	      7.22822623	     -1.85566962	     -8.13424457	     11.40876947	      0.05937671	      2.34591508	     28.96784957	     -3.64740283	     -7.42882332	      1.35515652	     -1.40135811	      0.64231037	      0.27040556	      1.81384373	      8.33484193	      8.43209066
      1.07950000	     -6.69417924	     -4.01927754	     -4.61393929	     -0.13593556	      0.96980284	      0.33433638	     -9.10570617	      7.08815520	     -1.86641451	     -8.58213495	     11.31544005	      0.01865097	      2.40109098	     28.95276207	     -3.51761413	     -7.45831678	      1.25494388	     -1.60975877	      0.42010124	      0.29369832	      1.93762486	      8.24360854	      8.44390037
      1.08366667	     -6.81603931	     -3.92005343	     -4.62170472	     -0.13005494	      0.96928598	      0.33401237	     -9.05281334	      6.93275374	     -1.86032104	     -9.08911250	     11.24731824	     -0.00745129	      2.51237490	     28.99110100	     -3.36831502	     -7.33079732	      1.12346460	     -1.94292519	     -0.03069772	      0.34942835	      2.10469239	      8.13314348	      8.49053648
      1.08783333	     -6.90001900	     -3.83783595	     -4.61399573	     -0.12415057	      0.96887318	      0.33368519	     -9.02435790	      6.79677892	     -1.87567333	     -9.62480285	     11.12992510	     -0.06766330	      2.68457265	     29.00077438	     -3.23217208	     -7.18695776	      0.91585716	     -2.28616452	     -0.57446569	      0.45041908	      2.24649085	      8.04553607	      8.51803592
      1.09200000	     -7.00189270	     -3.72868713	     -4.60101565	     -0.11820474	      0.96850029	      0.33334719	     -8.95909290	      6.63634325	     -1.87242157	    -10.18692954	     10.97627117	     -0.18328844	      2.87184735	     29.03281279	     -3.07171232	     -7.04831950	      0.65204449	     -2.65552501	     -1.06720126	      0.56831992	      2.41065878	      7.91836833	      8.52264262
      1.09616667	     -7.10095535	     -3.61192842	     -4.58007777	     -0.11223474	      0.96818825	      0.33299665	     -8.87168117	      6.46997187	     -1.87159400	    -10.79351874	     10.78875457	     -0.33474395	      3.09926115	     29.05936937	     -2.90205044	     -6.86974483	      0.35173423	     -3.05759590	     -1.62390836	      0.71432489	      2.58062871	      7.77471407	      8.52125320
      1.10033333	     -7.20184563	     -3.48254781	     -4.53903741	     -0.10622342	      0.96793045	      0.33263021	     -8.77158483	      6.29709519	     -1.86816667	    -11.41194118	     10.56210877	     -0.51788841	      3.31356830	     29.09862371	     -2.71494823	     -6.68970877	     -0.00326053	     -3.49631321	     -2.17009370	      0.85086010	      2.76227707	      7.60921140	      8.50709051
